# xmcd
#
# Track frame offsets: 
#        150
#        16273
#        32815
#        50418
#        68146
#        87999
#        104868
#        123615
#        139834
#        158902
#        176057
#        194800
#        212939
#        229779
#        247088
#        264029
#        299425
#        336802
#
# Disc length: 4731 seconds
#
# Revision: 0
# Processed by: cddbd v1.5.2PL0 Copyright (c) Steve Scherf et al.
# Submitted via: ExactAudioCopy v0.99pb5
#
DISCID=1a127912
DTITLE=Bosson - RockStar
DYEAR=2004
DGENRE=Pop
TTITLE0=I need love
TTITLE1=You opened my eyes
TTITLE2=One of a kind
TTITLE3=A little more time
TTITLE4=Beautiful
TTITLE5=Falling in love
TTITLE6=Definite goodbye
TTITLE7=Song for noa
TTITLE8=Say you will
TTITLE9=Xanadu
TTITLE10=Run away with you
TTITLE11=Love is still alive
TTITLE12=Rockstar
TTITLE13=It's not over yet
TTITLE14=Efharisto (Sound Factory Radio Remix)
TTITLE15=A little more time (Florian mix)
TTITLE16=Efharisto (Sound Factory dub Remix)
TTITLE17=A little more time (Wid mix)
EXTD=
EXTT0=
EXTT1=
EXTT2=
EXTT3=
EXTT4=
EXTT5=
EXTT6=
EXTT7=
EXTT8=
EXTT9=
EXTT10=
EXTT11=
EXTT12=
EXTT13=
EXTT14=
EXTT15=
EXTT16=
EXTT17=
PLAYORDER=
